HIERARCHY
ROOT Hips
{
	OFFSET 0.000000 0.000000 0.000000
	CHANNELS 6 Xposition Yposition Zposition Yrotation Xrotation Zrotation
	JOINT Chest
	{
		OFFSET 0.000000 -0.009281 11.569106
		CHANNELS 3 Yrotation Xrotation Zrotation
		JOINT Chest2
		{
			OFFSET -0.000000 0.016865 9.269641
			CHANNELS 3 Yrotation Xrotation Zrotation
			JOINT Chest3
			{
				OFFSET -0.000000 0.000001 8.374491
				CHANNELS 3 Yrotation Xrotation Zrotation
				JOINT Chest4
				{
					OFFSET -0.000000 0.000001 8.374493
					CHANNELS 3 Yrotation Xrotation Zrotation
					JOINT Neck
					{
						OFFSET -0.000000 0.000002 12.152554
						CHANNELS 3 Yrotation Xrotation Zrotation
						JOINT Head
						{
							OFFSET -0.000000 0.040101 7.802319
							CHANNELS 3 Yrotation Xrotation Zrotation
							End Site
							{
								OFFSET -0.000000 0.020947 14.853096
							}
						}
					}
					JOINT RightCollar
					{
						OFFSET 2.894404 0.000001 6.791374
						CHANNELS 3 Yrotation Xrotation Zrotation
						JOINT RightShoulder
						{
							OFFSET 13.574684 0.000001 0.000000
							CHANNELS 3 Yrotation Xrotation Zrotation
							JOINT RightElbow
							{
								OFFSET 23.923903 0.000002 0.000000
								CHANNELS 3 Yrotation Xrotation Zrotation
								JOINT RightWrist
								{
									OFFSET 19.846718 0.012767 0.000000
									CHANNELS 3 Yrotation Xrotation Zrotation
									End Site
									{
										OFFSET 14.973145 0.000001 0.000000
									}
								}
							}
						}
					}
					JOINT LeftCollar
					{
						OFFSET -2.894404 0.000001 6.791374
						CHANNELS 3 Yrotation Xrotation Zrotation
						JOINT LeftShoulder
						{
							OFFSET -13.574684 -0.000001 0.000000
							CHANNELS 3 Yrotation Xrotation Zrotation
							JOINT LeftElbow
							{
								OFFSET -23.923903 -0.000002 0.000000
								CHANNELS 3 Yrotation Xrotation Zrotation
								JOINT LeftWrist
								{
									OFFSET -19.846718 0.012763 0.000000
									CHANNELS 3 Yrotation Xrotation Zrotation
									End Site
									{
										OFFSET -14.973145 -0.000001 0.000000
									}
								}
							}
						}
					}
				}
			}
		}
	}
	JOINT RightHip
	{
		OFFSET 9.469263 0.004643 0.045487
		CHANNELS 3 Yrotation Xrotation Zrotation
		JOINT RightKnee
		{
			OFFSET 0.000000 0.002661 -40.478676
			CHANNELS 3 Yrotation Xrotation Zrotation
			JOINT RightAnkle
			{
				OFFSET 0.000000 0.049106 -35.224068
				CHANNELS 3 Yrotation Xrotation Zrotation
				JOINT RightToe
				{
					OFFSET -0.000001 12.539529 -6.151390
					CHANNELS 3 Yrotation Xrotation Zrotation
					End Site
					{
						OFFSET -0.000001 5.044994 -1.291870
					}
				}
			}
		}
	}
	JOINT LeftHip
	{
		OFFSET -9.469263 0.004641 0.045487
		CHANNELS 3 Yrotation Xrotation Zrotation
		JOINT LeftKnee
		{
			OFFSET 0.000000 0.002661 -40.478676
			CHANNELS 3 Yrotation Xrotation Zrotation
			JOINT LeftAnkle
			{
				OFFSET 0.000000 0.049106 -35.224068
				CHANNELS 3 Yrotation Xrotation Zrotation
				JOINT LeftToe
				{
					OFFSET -0.000001 12.539529 -6.151390
					CHANNELS 3 Yrotation Xrotation Zrotation
					End Site
					{
						OFFSET -0.000001 5.044994 -1.291870
					}
				}
			}
		}
	}
}
MOTION
Frames: 8
Frame Time: 0.016667
10.171453 11.991139 83.223030 -2.519028 -1.683831 -112.693818 -1.354199 -5.479091 0.471612 -0.579272 -2.362624 0.335260 -0.579272 -2.362624 0.335260 -0.433097 -1.772290 0.249169 2.003899 -17.199545 -1.266974 3.266844 4.249322 -1.649075 9.929008 7.066406 0.416655 42.406449 -14.770277 -17.088172 -43.514988 -63.427753 107.719979 -64.347677 38.414948 34.991722 -8.305744 3.687252 -5.285126 -41.133626 -14.090153 20.128567 16.740288 -61.265526 -77.519888 36.412958 25.135911 -68.208564 2.284734 -3.171656 -13.102910 2.037864 1.209363 -4.925230 -1.032942 -0.369082 0.725787 0.093996 -0.020368 -0.130992 -2.546631 -4.667223 14.126273 -1.144708 -1.024886 10.065255 5.167059 2.976170 11.314049 -0.290950 -0.116807 -0.054981 
10.230243 11.800000 83.219353 -2.648375 -1.692919 -112.591803 -1.359265 -5.445946 0.461055 -0.576634 -2.346654 0.333589 -0.576634 -2.346653 0.333589 -0.431133 -1.760308 0.247942 1.963733 -17.091251 -1.303256 3.180121 4.451130 -1.728395 9.914080 7.093785 0.415354 42.414553 -14.776918 -17.086659 -43.523031 -63.468877 107.705321 -64.357437 38.426579 34.967454 -8.327136 3.727112 -5.246798 -41.143472 -14.097028 20.143333 16.664565 -61.315482 -77.444237 36.396094 25.190159 -68.232599 2.379640 -3.445391 -13.327838 2.033386 1.296234 -4.819502 -1.138899 -0.253496 0.762207 0.084490 -0.043743 -0.148376 -2.508458 -4.871980 14.107757 -1.090241 -1.013454 10.076079 5.086307 3.034085 11.297858 -0.288322 -0.110637 -0.049219 
10.287832 11.622635 83.214233 -2.765962 -1.690102 -112.514574 -1.368143 -5.416083 0.456655 -0.574893 -2.332669 0.334145 -0.574893 -2.332669 0.334146 -0.429835 -1.749819 0.248380 1.916619 -16.974728 -1.341436 3.079674 4.668180 -1.813746 9.904215 7.114676 0.419553 42.434852 -14.779390 -17.086642 -43.505279 -63.506990 107.649478 -64.379983 38.449327 34.937599 -8.338075 3.757457 -5.213273 -41.163935 -14.107940 20.130232 16.580452 -61.359503 -77.352364 36.377034 25.247518 -68.254299 2.449381 -3.688271 -13.572260 2.045942 1.357433 -4.688471 -1.255849 -0.119375 0.804114 0.082750 -0.071306 -0.168705 -2.477806 -5.061960 14.097668 -1.037436 -0.999188 10.086075 5.001340 3.082041 11.322936 -0.282538 -0.097981 -0.044051 
10.343281 11.454297 83.208000 -2.883109 -1.681290 -112.447419 -1.380318 -5.390689 0.447024 -0.576419 -2.320195 0.333178 -0.576419 -2.320195 0.333175 -0.430990 -1.740462 0.247663 1.865959 -16.858573 -1.377084 2.973325 4.884414 -1.895911 9.898451 7.133987 0.419917 42.456483 -14.787576 -17.082448 -43.472009 -63.551468 107.575575 -64.404094 38.475309 34.901519 -8.337372 3.778937 -5.180009 -41.173972 -14.126157 20.093479 16.477447 -61.416091 -77.246892 36.360857 25.312760 -68.276251 2.517785 -3.928292 -13.873236 2.049767 1.429223 -4.540308 -1.371615 0.015749 0.875128 0.083867 -0.102002 -0.183778 -2.457168 -5.242447 14.115067 -0.983437 -0.991923 10.091628 4.918892 3.130545 11.271673 -0.276913 -0.083421 -0.039640 
10.400118 11.295597 83.201180 -2.999455 -1.669286 -112.389861 -1.394352 -5.370319 0.427382 -0.579140 -2.307264 0.330793 -0.579140 -2.307264 0.330796 -0.433047 -1.730764 0.245876 1.810077 -16.747451 -1.408935 2.858403 5.091173 -1.973210 9.882955 7.153998 0.405363 42.481892 -14.792537 -17.059748 -43.441612 -63.620323 107.510941 -64.435410 38.500041 34.868389 -8.333654 3.787784 -5.153270 -41.171052 -14.152974 20.038889 16.363678 -61.477631 -77.134610 36.349543 25.393351 -68.298313 2.578762 -4.172305 -14.257309 2.056536 1.512722 -4.374399 -1.476176 0.154023 1.013470 0.079354 -0.135667 -0.197091 -2.429929 -5.423114 14.140460 -0.939597 -0.986658 10.099489 4.839651 3.183857 11.075394 -0.274316 -0.070946 -0.037257 
10.459265 11.138021 83.193825 -3.116121 -1.663280 -112.340165 -1.404699 -5.352672 0.403827 -0.580378 -2.294498 0.326994 -0.580378 -2.294498 0.326994 -0.433998 -1.721187 0.243034 1.750652 -16.642369 -1.439082 2.737302 5.286581 -2.048929 9.867107 7.177001 0.381585 42.496074 -14.782257 -17.019004 -43.455330 -63.711841 107.496468 -64.465887 38.524176 34.828395 -8.330922 3.796259 -5.139350 -41.164707 -14.210346 19.978115 16.231606 -61.536398 -77.001709 36.343863 25.494958 -68.312069 2.646551 -4.422790 -14.669978 2.063400 1.604381 -4.214460 -1.571812 0.294516 1.178917 0.069039 -0.166682 -0.210242 -2.410658 -5.605431 14.157059 -0.896663 -0.978276 10.125652 4.766621 3.234538 10.942394 -0.267573 -0.056755 -0.033471 
10.519732 10.985269 83.185760 -3.227161 -1.661348 -112.315924 -1.412734 -5.331449 0.386507 -0.579822 -2.281848 0.324176 -0.579822 -2.281848 0.324180 -0.433599 -1.711696 0.240934 1.686365 -16.540080 -1.462851 2.609245 5.476637 -2.114840 9.855610 7.199826 0.362915 42.497389 -14.773861 -16.963538 -43.481671 -63.799581 107.504903 -64.499095 38.545029 34.786358 -8.326659 3.809032 -5.101707 -41.147191 -14.313947 19.886681 16.058104 -61.598990 -76.832470 36.339888 25.605032 -68.323284 2.712609 -4.664161 -15.024075 2.070517 1.689747 -4.057569 -1.663605 0.437673 1.315576 0.060188 -0.193560 -0.225242 -2.396061 -5.785836 14.168616 -0.852067 -0.965840 10.163098 4.693221 3.280513 10.968964 -0.258112 -0.042597 -0.030063 
10.577427 10.842825 83.176697 -3.328996 -1.657282 -112.305802 -1.418161 -5.302667 0.371763 -0.578286 -2.268763 0.319933 -0.578286 -2.268762 0.319934 -0.432470 -1.701877 0.237770 1.618840 -16.441034 -1.480276 2.477251 5.660504 -2.170399 9.849150 7.216411 0.346933 42.487086 -14.779855 -16.902464 -43.512130 -63.868156 107.520947 -64.529483 38.563149 34.752989 -8.314679 3.818528 -5.067643 -41.132185 -14.421622 19.783660 15.886542 -61.671369 -76.664352 36.340670 25.717822 -68.334055 2.770674 -4.871554 -15.285178 2.072727 1.739701 -3.937602 -1.750325 0.597980 1.395321 0.052538 -0.219665 -0.241299 -2.377946 -5.952236 14.165680 -0.818293 -0.961289 10.204882 4.624065 3.331878 11.001505 -0.246259 -0.031795 -0.026803 
